<svg id="图层_1" data-name="图层 1" xmlns="http://www.w3.org/2000/svg" viewBox="0 0 512 162.93"><defs><style>.cls-1{fill:#ffc000;}</style></defs><path class="cls-1" d="M199.12,11.57c0-6.95,5.45-11.69,12.76-11.69s12.76,4.74,12.76,11.69-5.45,11.68-12.76,11.68S199.12,18.38,199.12,11.57Zm2.36,27.09h20.65v88H201.48Z"/><path class="cls-1" d="M250.23,9.49h36.91c26,0,45.31,9,45.31,36.13,0,26.13-19.36,38-44.59,38H271v43.08H250.23ZM286.14,67c17.49,0,25.8-7,25.8-21.36s-9.1-19.5-26.52-19.5H271V67Z"/><path class="cls-1" d="M341.19,103c0-18.85,15.62-28.67,51.75-32.54-.28-9.46-4.08-17.35-16-17.35-8.75,0-17,4-24.73,8.68l-7.6-13.77c9.68-6.09,22.15-11.54,36.13-11.54,22,0,32.83,13.55,32.83,38.07v52.11H396.67l-1.58-9.75h-.57c-7.89,6.74-16.92,11.9-27.31,11.9C351.8,128.84,341.19,118.37,341.19,103Zm51.75.08V83.32c-23.87,3-31.82,9.25-31.82,18.14,0,7.78,5.3,11.18,12.68,11.18C381,112.64,386.42,109.13,392.94,103.11Z"/><path class="cls-1" d="M432.72,161l3.8-16a24.45,24.45,0,0,0,6.31,1.22c9.25,0,14.62-6.31,17.56-15.13l1.65-5.52L427.42,38.66h20.93l15.2,43.16c2.65,7.81,5.16,16.48,7.74,24.87H472c2.22-8.17,4.44-16.85,6.73-24.87l13.12-43.16h19.93L480,130.7c-7.31,19.82-16.56,32.12-35.77,32.12A34.54,34.54,0,0,1,432.72,161Z"/><path class="cls-1" d="M81.46.09A289.29,289.29,0,0,0,118,44.65a289.4,289.4,0,0,0,44.56,36.5l.2.2h0a290.88,290.88,0,0,0-81.46,81.45h0l-.21-.21a289.29,289.29,0,0,0-36.5-44.56A288.28,288.28,0,0,0,0,81.56l-.2-.21.12-.12A289.48,289.48,0,0,0,44.57,44.67,289.38,289.38,0,0,0,81.13,0l.13-.13Z"/></svg>